<svg width="285" height="285" viewBox="0 0 285 285" fill="none" xmlns="http://www.w3.org/2000/svg">
<path opacity="0.3" d="M-15.226 94.7991L325.815 292.167C334.542 297.273 344.461 299.976 354.566 300C364.672 300.024 374.604 297.369 383.355 292.305C392.106 287.241 399.365 279.947 404.396 271.164C409.427 262.381 412.05 252.421 411.999 242.294L411.999 -152.374C411.999 -159.948 410.51 -167.446 407.616 -174.442C404.722 -181.438 400.48 -187.794 395.133 -193.146C389.786 -198.498 383.439 -202.741 376.455 -205.633C369.471 -208.525 361.986 -210.009 354.429 -210C344.375 -209.999 334.501 -207.324 325.815 -202.248L-15.226 -4.87968C-23.9713 0.158836 -31.2364 7.41933 -36.2882 16.1696C-41.34 24.9198 -44 34.8504 -44 44.9597C-44 55.069 -41.34 64.9996 -36.2882 73.7499C-31.2364 82.5001 -23.9713 89.7606 -15.226 94.7991ZM343.545 -111.007L343.545 200.927C343.561 203.19 342.98 205.417 341.859 207.382C340.739 209.347 339.12 210.98 337.167 212.116C335.214 213.251 332.995 213.849 330.737 213.847C328.479 213.846 326.261 213.246 324.309 212.109L54.8715 56.3134C52.9251 55.1786 51.3101 53.5518 50.1874 51.5956C49.0647 49.6394 48.4737 47.4222 48.4737 45.1655C48.4737 42.9088 49.0647 40.6916 50.1874 38.7354C51.3101 36.7792 52.9251 35.1525 54.8715 34.0177L324.446 -122.052C326.388 -123.184 328.593 -123.783 330.84 -123.791C333.086 -123.798 335.295 -123.212 337.244 -122.093C339.194 -120.974 340.815 -119.36 341.945 -117.414C343.075 -115.468 343.674 -113.259 343.682 -111.007L343.545 -111.007Z" fill="url(#paint0_linear_101_13664)"/>
<defs>
<linearGradient id="paint0_linear_101_13664" x1="13.5" y1="30" x2="274.5" y2="93.5" gradientUnits="userSpaceOnUse">
<stop stop-color="#8ECAE6"/>
<stop offset="1" stop-color="#8ECAE6" stop-opacity="0"/>
</linearGradient>
</defs>
</svg>
