<svg width="24" height="24" viewBox="0 0 24 24" fill="none" xmlns="http://www.w3.org/2000/svg">
    <path fill-rule="evenodd" clip-rule="evenodd" d="M13.002 4.99951C13.002 4.44723 12.5543 3.99951 12.002 3.99951C11.4497 3.99951 11.002 4.44723 11.002 4.99951V13.0857L8.20906 10.2928C7.81854 9.90229 7.18537 9.90229 6.79485 10.2928C6.40432 10.6833 6.40432 11.3165 6.79485 11.707L10.5878 15.5C11.3688 16.281 12.6352 16.281 13.4162 15.5L17.2072 11.709C17.5977 11.3185 17.5977 10.6853 17.2072 10.2948C16.8167 9.90425 16.1835 9.90425 15.793 10.2948L13.002 13.0858V4.99951Z" fill="#009DBE"/>
    <path fill-rule="evenodd" clip-rule="evenodd" d="M4 14C4.55228 14 5 14.4477 5 15V17C5 17.5523 5.44772 18 6 18H18C18.5523 18 19 17.5523 19 17V15C19 14.4477 19.4477 14 20 14C20.5523 14 21 14.4477 21 15V17C21 18.6569 19.6569 20 18 20H6C4.34315 20 3 18.6569 3 17V15C3 14.4477 3.44772 14 4 14Z" fill="#009DBE"/>
    </svg>
    