<svg width="41" height="40" viewBox="0 0 41 40" fill="none" xmlns="http://www.w3.org/2000/svg">
    <path d="M20.6001 10.2002C15.086 10.2002 10.6001 14.3259 10.6001 19.397C10.6071 20.7254 10.9148 22.035 11.5002 23.2275C12.0856 24.42 12.9334 25.4645 13.9801 26.2826V27.7048C13.9809 28.244 14.1893 28.7621 14.5619 29.1518C14.9345 29.5415 15.4428 29.7728 15.9814 29.7978C16.3387 29.8148 16.6944 29.7406 17.0151 29.5823L19.2051 28.5023C19.6677 28.5627 20.1336 28.5931 20.6001 28.5935C23.1823 28.6147 25.6804 27.676 27.6095 25.9594C28.5442 25.1397 29.2942 24.1307 29.8098 22.9994C30.3253 21.8681 30.5947 20.6401 30.6001 19.3969C30.6001 14.3259 26.1141 10.2002 20.6001 10.2002ZM20.6001 27.0509C20.0491 27.0505 19.4993 27.0013 18.957 26.9039L16.3284 28.2002C16.2009 28.2637 16.0539 28.2756 15.9178 28.2335C15.7817 28.1914 15.6671 28.0985 15.5978 27.9741C15.552 27.8919 15.5282 27.7994 15.5285 27.7053V25.5102C14.5062 24.8474 13.663 23.9428 13.0735 22.8766C12.484 21.8104 12.1663 20.6153 12.1485 19.3971C12.1486 15.1502 15.9495 11.7427 20.6001 11.7427C25.2507 11.7427 29.0516 15.1506 29.0516 19.3969C29.0516 23.6432 25.2507 27.051 20.6001 27.0509Z" fill="#22313F"/>
    <path d="M16.0747 20.6748C16.627 20.6748 17.0747 20.2271 17.0747 19.6748C17.0747 19.1225 16.627 18.6748 16.0747 18.6748C15.5224 18.6748 15.0747 19.1225 15.0747 19.6748C15.0747 20.2271 15.5224 20.6748 16.0747 20.6748Z" fill="#22313F"/>
    <path d="M20.6001 20.6748C21.1524 20.6748 21.6001 20.2271 21.6001 19.6748C21.6001 19.1225 21.1524 18.6748 20.6001 18.6748C20.0478 18.6748 19.6001 19.1225 19.6001 19.6748C19.6001 20.2271 20.0478 20.6748 20.6001 20.6748Z" fill="#22313F"/>
    <path d="M25.1255 20.6748C25.6778 20.6748 26.1255 20.2271 26.1255 19.6748C26.1255 19.1225 25.6778 18.6748 25.1255 18.6748C24.5732 18.6748 24.1255 19.1225 24.1255 19.6748C24.1255 20.2271 24.5732 20.6748 25.1255 20.6748Z" fill="#22313F"/>
    </svg>
    