<svg width="49" height="32" viewBox="0 0 49 32" fill="none" xmlns="http://www.w3.org/2000/svg">
    <rect x="0.799805" width="48" height="32" rx="8" fill="#CCEBF2"/>
    <path fill-rule="evenodd" clip-rule="evenodd" d="M16.0305 6.50049H19.9278C20.3313 6.50049 20.6585 6.82765 20.6585 7.23122C20.6585 7.63479 20.3313 7.96194 19.9278 7.96194H16.7613V11.1284C16.7613 11.532 16.4341 11.8592 16.0305 11.8592C15.627 11.8592 15.2998 11.532 15.2998 11.1284V7.23122C15.2998 6.82765 15.627 6.50049 16.0305 6.50049ZM16.0305 20.1408C16.4341 20.1408 16.7613 20.4679 16.7613 20.8715V23.0046L31.8039 7.96194H29.6719C29.2683 7.96194 28.9411 7.63479 28.9411 7.23122C28.9411 6.82765 29.2683 6.50049 29.6719 6.50049L33.568 6.50049L33.5691 6.50049C33.9726 6.50049 34.2998 6.82765 34.2998 7.23122V11.1284C34.2998 11.532 33.9726 11.8592 33.5691 11.8592C33.1655 11.8592 32.8383 11.532 32.8383 11.1284V8.99429L17.7947 24.038H19.9278C20.3313 24.038 20.6585 24.3651 20.6585 24.7687C20.6585 25.1723 20.3313 25.4994 19.9278 25.4994H16.0305C15.9243 25.4994 15.8235 25.4768 15.7324 25.4361C15.6643 25.4056 15.5998 25.3643 15.5418 25.3119C15.5232 25.2952 15.5055 25.2776 15.4888 25.2591C15.4331 25.1977 15.3898 25.1292 15.3587 25.0566C15.3208 24.9683 15.2998 24.8709 15.2998 24.7687V24.7687V20.8715C15.2998 20.4679 15.627 20.1408 16.0305 20.1408ZM34.2998 20.8715C34.2998 20.4679 33.9726 20.1408 33.5691 20.1408C33.1655 20.1408 32.8383 20.4679 32.8383 20.8715V24.038H29.6719C29.2683 24.038 28.9411 24.3651 28.9411 24.7687C28.9411 25.1723 29.2683 25.4994 29.6719 25.4994H33.5691C33.9726 25.4994 34.2998 25.1723 34.2998 24.7687V20.8715Z" fill="#22313F"/>
    </svg>
    