<svg width="32" height="32" viewBox="0 0 32 32" fill="none" xmlns="http://www.w3.org/2000/svg">
    <rect x="0.5" y="0.5" width="31" height="31" rx="15.5" stroke="#DEDDDD"/>
    <path d="M16 9C14.6155 9 13.2622 9.41054 12.111 10.1797C10.9599 10.9489 10.0627 12.0421 9.53285 13.3212C9.00303 14.6003 8.86441 16.0078 9.13451 17.3656C9.4046 18.7235 10.0713 19.9708 11.0503 20.9497C12.0292 21.9287 13.2765 22.5954 14.6344 22.8655C15.9922 23.1356 17.3997 22.997 18.6788 22.4672C19.9579 21.9373 21.0511 21.0401 21.8203 19.889C22.5895 18.7378 23 17.3845 23 16C23 14.1435 22.2625 12.363 20.9497 11.0503C19.637 9.7375 17.8565 9 16 9V9ZM15.7696 19.9563C15.6578 19.9597 15.5465 19.9407 15.4422 19.9003C15.3379 19.8599 15.2428 19.7989 15.1625 19.7211C15.0823 19.6432 15.0184 19.55 14.9748 19.447C14.9312 19.3441 14.9088 19.2334 14.9088 19.1215C14.9088 19.0097 14.9312 18.899 14.9748 18.796C15.0184 18.693 15.0823 18.5998 15.1625 18.522C15.2428 18.4441 15.3379 18.3832 15.4422 18.3427C15.5465 18.3023 15.6578 18.2833 15.7696 18.2867C15.8808 18.2842 15.9915 18.3039 16.095 18.3447C16.1985 18.3855 16.2928 18.4466 16.3724 18.5244C16.4519 18.6021 16.5152 18.695 16.5583 18.7976C16.6015 18.9001 16.6237 19.0103 16.6237 19.1215C16.6237 19.2328 16.6015 19.3429 16.5583 19.4455C16.5152 19.548 16.4519 19.6409 16.3724 19.7187C16.2928 19.7964 16.1985 19.8575 16.095 19.8983C15.9915 19.9391 15.8808 19.9589 15.7696 19.9563ZM17.2921 15.9408C16.5825 16.3527 16.3821 16.6345 16.3821 17.1762C16.3839 17.2407 16.3727 17.3049 16.3492 17.3651C16.3257 17.4252 16.2905 17.48 16.2454 17.5263C16.2004 17.5725 16.1466 17.6093 16.0871 17.6344C16.0277 17.6595 15.9638 17.6725 15.8992 17.6725H15.6051C15.4798 17.6725 15.3593 17.6238 15.2693 17.5366C15.1792 17.4495 15.1265 17.3308 15.1223 17.2055L15.1189 17.1057C15.0828 16.7474 15.1615 16.3868 15.3437 16.0761C15.5259 15.7654 15.8021 15.5206 16.1325 15.3771C16.805 14.9706 17.0319 14.6779 17.0319 14.1412C17.0284 13.9994 16.9954 13.8598 16.935 13.7313C16.8747 13.6029 16.7883 13.4884 16.6813 13.3951C16.5743 13.3018 16.4491 13.2318 16.3137 13.1895C16.1782 13.1472 16.0354 13.1335 15.8944 13.1493C15.662 13.1327 15.4304 13.1898 15.2324 13.3126C15.0344 13.4354 14.8803 13.6175 14.7919 13.8331C14.7465 13.9542 14.6656 14.0588 14.5598 14.1332C14.454 14.2076 14.3282 14.2483 14.1988 14.25C14.0963 14.251 13.9952 14.2269 13.9041 14.1799C13.813 14.1329 13.7348 14.0644 13.6762 13.9804C13.6176 13.8963 13.5803 13.7992 13.5677 13.6976C13.5551 13.5959 13.5675 13.4926 13.6038 13.3968C13.8079 12.954 14.1449 12.5857 14.5679 12.3433C14.991 12.1008 15.4791 11.9962 15.9643 12.044C17.449 12.044 18.441 12.9004 18.441 14.0928C18.4419 14.4776 18.3346 14.8548 18.1315 15.1816C17.9283 15.5083 17.6375 15.7714 17.292 15.9408H17.2921Z" fill="#6F767E"/>
    </svg>
    