<svg width="48" height="48" viewBox="0 0 48 48" fill="none" xmlns="http://www.w3.org/2000/svg">
    <rect x="1" y="1" width="46" height="46" rx="23" fill="white"/>
    <rect x="1" y="1" width="46" height="46" rx="23" stroke="#EFEFEF" stroke-width="2"/>
    <path fill-rule="evenodd" clip-rule="evenodd" d="M24 32C28.4183 32 32 28.4183 32 24C32 19.5817 28.4183 16 24 16C19.5817 16 16 19.5817 16 24C16 28.4183 19.5817 32 24 32ZM24 34C29.5228 34 34 29.5228 34 24C34 18.4772 29.5228 14 24 14C18.4772 14 14 18.4772 14 24C14 29.5228 18.4772 34 24 34Z" fill="#111315"/>
    <path fill-rule="evenodd" clip-rule="evenodd" d="M24 18C24.5523 18 25 18.4477 25 19V23.5858L27.2071 25.7929C27.5976 26.1834 27.5976 26.8166 27.2071 27.2071C26.8166 27.5976 26.1834 27.5976 25.7929 27.2071L23.5858 25C23.2107 24.6249 23 24.1162 23 23.5858V19C23 18.4477 23.4477 18 24 18Z" fill="#111315"/>
    </svg>
    