<svg width="48" height="48" viewBox="0 0 48 48" fill="none" xmlns="http://www.w3.org/2000/svg">
    <rect x="1" y="1" width="46" height="46" rx="23" stroke="#EFEFEF" stroke-width="2"/>
    <path fill-rule="evenodd" clip-rule="evenodd" d="M19 16H29V22C29 24.7614 26.7614 27 24 27C21.2386 27 19 24.7614 19 22V16ZM17 16C17 14.8954 17.8954 14 19 14H29C30.1046 14 31 14.8954 31 16H33C34.1046 16 35 16.8954 35 18V20C35 22.2091 33.2091 24 31 24H30.7101C29.9417 26.5819 27.7238 28.5395 25 28.9291V32H28C28.5523 32 29 32.4477 29 33C29 33.5523 28.5523 34 28 34H20C19.4477 34 19 33.5523 19 33C19 32.4477 19.4477 32 20 32H23V28.9291C20.2762 28.5395 18.0583 26.5819 17.2899 24H17C14.7909 24 13 22.2091 13 20V18C13 16.8954 13.8954 16 15 16L17 16ZM17 18H15V20C15 21.1046 15.8954 22 17 22V18ZM31 18V22C32.1046 22 33 21.1046 33 20V18H31Z" fill="#111315"/>
    </svg>
    