<svg width="48" height="48" viewBox="0 0 48 48" fill="none" xmlns="http://www.w3.org/2000/svg">
    <rect x="1" y="1" width="46" height="46" rx="23" fill="white"/>
    <rect x="1" y="1" width="46" height="46" rx="23" stroke="#EFEFEF" stroke-width="2"/>
    <path fill-rule="evenodd" clip-rule="evenodd" d="M24 28C26.2091 28 28 26.2091 28 24C28 21.7909 26.2091 20 24 20C21.7909 20 20 21.7909 20 24C20 26.2091 21.7909 28 24 28ZM24 30C27.3137 30 30 27.3137 30 24C30 20.6863 27.3137 18 24 18C20.6863 18 18 20.6863 18 24C18 27.3137 20.6863 30 24 30Z" fill="#111315"/>
    <path fill-rule="evenodd" clip-rule="evenodd" d="M24 26C25.1046 26 26 25.1046 26 24C26 22.8954 25.1046 22 24 22C22.8954 22 22 22.8954 22 24C22 25.1046 22.8954 26 24 26Z" fill="#111315"/>
    <path d="M28.7835 15.2162C27.3626 14.4407 25.7328 14 24 14C18.4772 14 14 18.4772 14 24C14 29.5228 18.4772 34 24 34C29.5228 34 34 29.5228 34 24C34 22.2672 33.5592 20.6373 32.7837 19.2163L31.8536 20.1464C31.6693 20.3307 31.4222 20.4342 31.1658 20.4392C31.6997 21.5116 32 22.7207 32 24C32 28.4183 28.4183 32 24 32C19.5817 32 16 28.4183 16 24C16 19.5817 19.5817 16 24 16C25.2793 16 26.4885 16.3003 27.5609 16.8342C27.5658 16.5778 27.6693 16.3307 27.8535 16.1465L28.7835 15.2162Z" fill="#111315"/>
    <path fill-rule="evenodd" clip-rule="evenodd" d="M30.0852 13.9132C30.6678 13.3305 31.6656 13.6629 31.7824 14.4785L32 15.9992L33.5201 16.2163C34.3359 16.3328 34.6685 17.3306 34.0858 17.9133L31.8536 20.1456C31.631 20.3682 31.3166 20.473 31.0051 20.4284L29.2364 20.1758C29.2269 20.1861 29.2171 20.1962 29.2071 20.2063L24.7071 24.7063C24.3166 25.0968 23.6834 25.0968 23.2929 24.7063C22.9024 24.3157 22.9024 23.6826 23.2929 23.292L27.7929 18.792C27.8029 18.782 27.8131 18.7723 27.8234 18.7628L27.5707 16.994C27.5262 16.6825 27.631 16.3682 27.8535 16.1456L30.0852 13.9132ZM29.6213 17.2061L30.1268 16.7004C30.3292 17.2414 30.7576 17.6698 31.2985 17.8722L30.7929 18.3778L29.7678 18.2314L29.6213 17.2061Z" fill="#111315"/>
    </svg>
    